# xmcd
#
# Track frame offsets:
#	182
#	13617
#	27105
#	39105
#	50935
#	65692
#	78900
#	92172
#	103595
#	116972
#
# Disc length: 1721 seconds
#
# Revision: 3
# Processed by: cddbd v1.5.2PL0 Copyright (c) Steve Scherf et al.
# Submitted via: audiograbber 1.83.01
#
DISCID=7e06b70a
DTITLE=Ruth Brown - Mama He Treats Your Daughter Mean
DYEAR=1997
DGENRE=Oldies
TTITLE0=Mama He Treats Your Daughter Mean
TTITLE1=Teardrops From My Eyes
TTITLE2=So Long
TTITLE3=I'll Wait For You
TTITLE4=5-10-15 Hours
TTITLE5=Oh What A Dream
TTITLE6=Daddy Daddy
TTITLE7=Wild Wild Young Men
TTITLE8=Love Has Joined Us Together
TTITLE9=Mambo Baby
EXTD=
EXTT0=
EXTT1=
EXTT2=
EXTT3=
EXTT4=
EXTT5=
EXTT6=
EXTT7=
EXTT8=
EXTT9=
PLAYORDER=
